#!OML:ASF F:\VICON\USERDATA\INSTALL\rory3\rory3.ASF
:FULLY-SPECIFIED
:DEGREES
192
root -0.13266386773325456 17.827943828586598 54.72288324308569 -2.26584762153508 -2.4829835952752966 -3.6210306867564968
lfemur -16.978608065929073 -3.401224996709889 -17.453862077627473
ltibia 23.485916356411003
lfoot 8.028674931083941 -4.665594122888209
ltoes -0.5612934451437352
rfemur -16.344189605933963 2.68957266470779 26.181654363044665
rtibia 34.354567845834644
rfoot -3.9650571573783626 -8.861411590719996
rtoes 6.995431196086681
lowerback 10.525022328458792 0.03808412555336116 3.426199773728898
upperback 0.048718276605503416 0.6097791614785701 1.738724113741642
thorax -5.871381723383002 0.19468388659957017 -0.3481965444854188
lowerneck -15.925188014403574 -2.8025849654465222 -3.589623499184604
upperneck 22.454300634049574 -3.2754360758236603 0.9402794637131935
head 9.585743015494932 -1.6678266819344854 0.8659436802926991
lclavicle 1.4506066323164074e-16 2.3550145524745e-16
lhumerus -32.476535599370514 4.662387078992795 79.63951652278926
lradius 26.46067419836213
lwrist 4.297816481105905
lhand -27.62888061744574 21.140766201995607
lfingers 7.12502
lthumb -1.1687475886424845 51.3765663727514
rclavicle 1.4658510669723665e-16 2.367020718651815e-16
rhumerus -25.901018791800244 -17.609477266393238 -77.50193548573037
rradius 18.650525750583196
rwrist 9.143583901464055
rhand -17.833868088491993 22.754371193834842
rfingers 7.12502
rthumb 8.358877262408674 -7.323624658432255
193
root -0.13552280854131832 17.860364827426093 54.48307146634775 -2.1492251510312625 -2.4029008707153863 -3.7819637350659168
lfemur -17.515475420295424 -3.604107490262386 -17.33416171799411
ltibia 22.346307682002404
lfoot 8.660472722564503 -5.267958914640841
ltoes -1.0722677065445523
rfemur -15.953059521583068 3.071553022954971 26.23710278231851
rtibia 32.61950901874196
rfoot -4.3892863560151145 -8.715726499681134
rtoes 6.5534225229696865
lowerback 10.500988975203997 0.025305238358480975 3.5060457043927484
upperback 0.060935316235566875 0.6078661300526048 1.7467272278316044
thorax -5.925761942952993 0.1865091067088613 -0.376511539547317
lowerneck -15.9140939045002 -2.8100550676612164 -3.571032492513151
upperneck 22.46135980758428 -3.285080585603483 0.9492614751146566
head 9.586933943394987 -1.6708636345773809 0.8710359416078862
lclavicle 1.450891251536119e-16 2.3552361784101695e-16
lhumerus -32.55949019710048 4.455073223505249 79.63736156413873
lradius 26.759634073320587
lwrist 5.291341180223296
lhand -27.83213195121855 20.66562956414695
lfingers 7.12502
lthumb -1.3012793379730985 51.05505869897662
rclavicle 1.4626247643401882e-16 2.3645399755677575e-16
rhumerus -25.92634821119129 -17.09423717300732 -77.70276424439024
rradius 18.976597092427344
rwrist 8.807743930927725
rhand -17.75331358740753 22.67318855265308
rfingers 7.12502
rthumb 8.34400683479139 -7.261919242795425
194
root -0.1361228343839524 17.880952833653378 54.33671714980697 -1.9728301542519437 -2.4575101563430177 -4.212169055787687
lfemur -17.99373919538641 -3.572616383139562 -16.916084196859686
ltibia 21.291973805673692
lfoot 9.030095999958188 -5.966524464882427
ltoes -1.4340418553819525
rfemur -15.471185654109002 3.5985800942415107 26.52510044737611
rtibia 30.982305236668754
rfoot -4.776768954604114 -8.350727202456252
rtoes 5.893284036902051
lowerback 10.493339747146324 0.07300830182865031 3.785646868661805
upperback 0.07441642745086885 0.7220455014657564 1.7898949174619867
thorax -5.950965807802275 0.23464243362698917 -0.4961908338760985
lowerneck -15.917291415762667 -2.8231441628043323 -3.553256292767072
upperneck 22.413802783383346 -3.304353185757423 0.9923476138547345
head 9.571541922506132 -1.6759264691386055 0.8834829162969553
lclavicle 1.4525636942949898e-16 2.3565197515845606e-16
lhumerus -32.54657344798932 4.164870308181656 79.61768209295504
lradius 27.129983727369538
lwrist 5.8723662206989635
lhand -28.0192618386514 20.3878845204011
lfingers 7.12502
lthumb -1.4161218765728383 50.84380260168492
rclavicle 1.461353016285155e-16 2.363562084195067e-16
rhumerus -25.853599083934256 -16.455093401458242 -77.9712559495871
rradius 19.28640448409668
rwrist 8.416052025843015
rhand -17.650784117714345 22.617050029166812
rfingers 7.12502
rthumb 8.336804193620694 -7.251395221258844
195
root -0.13279082018774957 17.89814542133152 54.10084233380805 -1.8345626964008201 -2.5965994563797308 -4.281151500959626
lfemur -18.33562684057068 -3.481598596730243 -16.84712979511241
ltibia 20.20090725594663
lfoot 9.314434616273374 -6.414653248231296
ltoes -1.5954113069600337
rfemur -14.782535924597072 4.198577013437765 26.546278256573803
rtibia 29.434998699000435
rfoot -5.171932617244664 -7.840718214690479
rtoes 5.24350416795319
lowerback 10.413107100167947 0.15933669331435427 3.7883868370189364
upperback 0.1143140399307364 0.8470329386003062 1.7762411085360115
thorax -5.917060885013865 0.30161162002620023 -0.5500525472348101
lowerneck -15.938269652769737 -2.832348930603721 -3.547930797583552
upperneck 22.380068867871763 -3.3193389562361744 1.0350076029922197
head 9.568986979144581 -1.6809196952746872 0.8965311157035702
lclavicle 1.4529817011312748e-16 2.3568496753085226e-16
lhumerus -32.432505710840026 3.772916672765616 79.60878106149465
lradius 27.550451656002842
lwrist 6.0910389411248005
lhand -28.19550346308693 20.4151706579875
lfingers 7.12502
lthumb -1.571765332015663 50.84197437162398
rclavicle 1.466612724514443e-16 2.367606371981156e-16
rhumerus -25.646643375339185 -15.911183613351985 -78.16363233268719
rradius 19.410586661058243
rwrist 8.56921656777612
rhand -17.57256292074609 22.551007954712308
rfingers 7.12502
rthumb 8.28347354313415 -7.177131313224799
196
root -0.12248239078066608 17.905009870662294 53.86618198673355 -1.7141757855651143 -2.764443497501071 -4.2765782537759485
lfemur -18.50015469550879 -3.3709824754296496 -16.855193807260324
ltibia 19.08008941926471
lfoot 9.215115785143603 -7.215333626489377
ltoes -1.6602417412259043
rfemur -13.99219175699951 4.737332932560168 26.557897430220628
rtibia 28.241655553719177
rfoot -5.482204842750657 -7.089675421222504
rtoes 4.648273727996961
lowerback 10.230675678528117 0.24836181363092114 3.7821371812140026
upperback 0.13383191395165092 0.9823865727700205 1.7312087963060583
thorax -5.813746214985562 0.37540795757986234 -0.6349586429292984
lowerneck -15.96116215791659 -2.828472257668485 -3.540521512685645
upperneck 22.36602094927965 -3.314039540868798 1.0356916366431053
head 9.573535186832952 -1.67878320588164 0.8936117368741205
lclavicle 1.4560152784799942e-16 2.3591832547077533e-16
lhumerus -32.39427982187566 3.5546867701216325 79.55304767179227
lradius 27.890200723200927
lwrist 6.180666076586304
lhand -28.32882978174989 20.393669736733678
lfingers 7.12502
lthumb -1.7102609241995044 50.753861105106765
rclavicle 1.4660735723783111e-16 2.367191893837454e-16
rhumerus -25.504380125255203 -15.789323499049349 -78.19820865788624
rradius 19.388166931372204
rwrist 8.99715611954569
rhand -17.53003178098286 22.50001687566115
rfingers 7.12502
rthumb 8.228091209565411 -7.105162062295205
